# xmcd
#
# Track frame offsets: 
#        150
#        22588
#        35832
#        80505
#        101843
#        122709
#        137636
#        159824
#        178033
#        198193
#        215001
#        229110
#        253236
#        278498
#
# Disc length: 3957 seconds
#
# Revision: 0
# Processed by: cddbd v1.5.2PL0 Copyright (c) Steve Scherf et al.
# Submitted via: ExactAudioCopy v1.0b3
#
DISCID=ba0f730e
DTITLE=林峯 - COME 2 ME BEAUTY LIVE ON STAGE CONCERT  Disc 2
DYEAR=2010
DGENRE=Pop
TTITLE0=換個方式愛你
TTITLE1=心呼吸
TTITLE2=Ladies song medlry：可惜我是水瓶座、殘酷遊戲、誰願放手、痛愛
TTITLE3=搜神記
TTITLE4=Come 2 Me
TTITLE5=Tonight
TTITLE6=愛不疚
TTITLE7=直到你不找我
TTITLE8=影子的愛情故事
TTITLE9=忘記傷害
TTITLE10=愛不疚、所謂理想
TTITLE11=愛在記憶中找你
TTITLE12=BONUS TRACK 歡樂今宵
TTITLE13=BONUS TRACK 時代
EXTD=
EXTT0=
EXTT1=
EXTT2=
EXTT3=
EXTT4=
EXTT5=
EXTT6=
EXTT7=
EXTT8=
EXTT9=
EXTT10=
EXTT11=
EXTT12=
EXTT13=
PLAYORDER=
